<svg viewBox="0 0 1400 1200" xmlns="http://www.w3.org/2000/svg">
  <!-- Define styles -->
  <defs>
    <style>
      .title-box { fill: #D8D8F6; stroke: #9999CC; stroke-width: 1; }
      .main-box { fill: #C8C8E8; stroke: #8888BB; stroke-width: 1; cursor: pointer; }
      .main-box:hover { fill: #B8B8D8; }
      .inference-box { fill: #FFE4B5; stroke: #DAA520; stroke-width: 1; cursor: pointer; }
      .inference-box:hover { fill: #FFD8A0; }
      .sft-box { fill: #E0D5F7; stroke: #8B7AA8; stroke-width: 1; cursor: pointer; }
      .sft-box:hover { fill: #D5C8F0; }
      .rl-box { fill: #FFE4E1; stroke: #CD5C5C; stroke-width: 1; cursor: pointer; }
      .rl-box:hover { fill: #FFD8D4; }
      .pretrain-box { fill: #B0E0E6; stroke: #4682B4; stroke-width: 1; cursor: pointer; }
      .pretrain-box:hover { fill: #A0D4DB; }
      .subquad-box { fill: #D4F1D4; stroke: #228B22; stroke-width: 1; cursor: pointer; }
      .subquad-box:hover { fill: #C8E8C8; }
      .future-box { fill: #FFDAB9; stroke: #CD853F; stroke-width: 1; cursor: pointer; }
      .future-box:hover { fill: #FFCEAD; }
      .text-main { font-family: Arial, sans-serif; font-size: 11px; fill: #333; font-weight: 500; }
      .text { font-family: Arial, sans-serif; font-size: 9px; fill: #333; }
      .text-small { font-family: Arial, sans-serif; font-size: 8px; fill: #333; }
      .connector { stroke: #666; stroke-width: 1; fill: none; }
    </style>
  </defs>

  <!-- Title -->
  <rect x="20" y="20" width="220" height="1160" class="title-box" rx="10"/>
  <text x="130" y="600" text-anchor="middle" class="text-main" transform="rotate(-90 130 600)">Hierarchy of Efficient Reasoning Methods in Large Reasoning Models (LRMs)</text>

  <!-- I. Efficient Reasoning during Inference -->
  <g class="component" data-component="efficient-reasoning-inference">
  <rect x="270" y="50" width="180" height="30" class="main-box" rx="5"/>
  <text x="360" y="69" text-anchor="middle" class="text-main">I. Efficient Reasoning during Inference</text>
  </g>
  <line x1="240" y1="65" x2="270" y2="65" class="connector"/>
  
  <!-- 1. Length Budgeting -->
  <g class="component" data-component="length-budgeting">
  <rect x="480" y="30" width="100" height="25" class="main-box" rx="3"/>
  <text x="530" y="47" text-anchor="middle" class="text">Length Budgeting</text>
  </g>
  <line x1="450" y1="65" x2="470" y2="65" class="connector"/>
  <line x1="470" y1="65" x2="470" y2="42" class="connector"/>
  <line x1="470" y1="42" x2="480" y2="42" class="connector"/>
  
  <g class="component" data-component="length-budgeting-papers">
    <rect x="600" y="10" width="320" height="90" class="inference-box" rx="3"/>
    <text x="610" y="25" class="text">TALE (Han et al., 2024)</text>
    <text x="610" y="38" class="text">Sketch-of-Thought (Aytes et al., 2025)</text>
    <text x="610" y="51" class="text">Planning Tokens (Wang et al., 2023b)</text>
    <text x="610" y="64" class="text">Chain of Draft (Xu et al., 2025a)</text>
    <text x="610" y="77" class="text">S1 (Muennighoff et al., 2025)</text>
    <text x="610" y="90" class="text">SafeChain (Jiang et al., 2025)</text>
    <text x="760" y="25" class="text">DSC (Wang et al., 2024b)</text>
    <text x="760" y="38" class="text">Dynasor (Fu et al., 2024b)</text>
    <text x="760" y="51" class="text">TSP (Wang et al., 2025e)</text>
  </g>
  <line x1="580" y1="42" x2="600" y2="42" class="connector"/>
  
  <!-- 2. System Switch -->
  <g class="component" data-component="system-switch">
  <rect x="480" y="110" width="100" height="35" class="main-box" rx="3"/>
  <text x="530" y="123" text-anchor="middle" class="text">System Switch</text>
  <text x="530" y="135" text-anchor="middle" class="text-small">(System 1 ↔ System 2)</text>
  </g>
  <line x1="470" y1="65" x2="470" y2="127" class="connector"/>
  <line x1="470" y1="127" x2="480" y2="127" class="connector"/>
  
  <g class="component" data-component="system-switch-papers">
    <rect x="600" y="110" width="320" height="50" class="inference-box" rx="3"/>
    <text x="610" y="125" class="text">Dualformer (Su et al., 2024a)</text>
    <text x="610" y="138" class="text">System 1.x (Saha et al., 2024)</text>
    <text x="610" y="151" class="text">FaST (Sun et al., 2025a)</text>
    <text x="760" y="125" class="text">HaluSearch (Cheng et al., 2025a)</text>
    <text x="760" y="138" class="text">Dyna-Think (Pan et al., 2024)</text>
  </g>
  <line x1="580" y1="127" x2="600" y2="127" class="connector"/>
  
  <!-- 3. Model Switch -->
  <g class="component" data-component="model-switch">
  <rect x="480" y="170" width="100" height="25" class="main-box" rx="3"/>
  <text x="530" y="187" text-anchor="middle" class="text">Model Switch</text>
  </g>
  <line x1="470" y1="65" x2="470" y2="182" class="connector"/>
  <line x1="470" y1="182" x2="480" y2="182" class="connector"/>
  
  <g class="component" data-component="model-switch-papers">
    <rect x="600" y="170" width="320" height="65" class="inference-box" rx="3"/>
    <text x="610" y="185" class="text">BiLD (Kim et al., 2023)</text>
    <text x="610" y="198" class="text">EAGLE / EAGLE-2 (Li et al., 2024e, 2024d)</text>
    <text x="610" y="211" class="text">MEDUSA (Cai et al., 2024)</text>
    <text x="610" y="224" class="text">LayerSkip (Elhoushi et al., 2024)</text>
    <text x="760" y="185" class="text">Zooter (Lu et al., 2023)</text>
    <text x="760" y="198" class="text">RouteLLM (Ong et al., 2025)</text>
    <text x="760" y="211" class="text">MixLLM (Wang et al., 2025b)</text>
  </g>
  <line x1="580" y1="182" x2="600" y2="182" class="connector"/>
  
  <!-- 4. Parallel Search -->
  <g class="component" data-component="parallel-search">
  <rect x="480" y="245" width="100" height="25" class="main-box" rx="3"/>
  <text x="530" y="262" text-anchor="middle" class="text">Parallel Search</text>
  </g>
  <line x1="470" y1="65" x2="470" y2="257" class="connector"/>
  <line x1="470" y1="257" x2="480" y2="257" class="connector"/>
  
  <g class="component" data-component="parallel-search-papers">
    <rect x="600" y="245" width="320" height="65" class="inference-box" rx="3"/>
    <text x="610" y="260" class="text">SBoN (Sun et al., 2024a)</text>
    <text x="610" y="273" class="text">TreeBoN (Qiu et al., 2024)</text>
    <text x="610" y="286" class="text">STBoN (Wang et al., 2025d)</text>
    <text x="610" y="299" class="text">SelfCalibration (Huang et al., 2025a)</text>
    <text x="760" y="260" class="text">MetaReasoner (Sui et al., 2025)</text>
    <text x="760" y="273" class="text">TPO (Li et al., 2025d)</text>
  </g>
  <line x1="580" y1="257" x2="600" y2="257" class="connector"/>

  <!-- II. Efficient Reasoning with SFT -->
  <g class="component" data-component="efficient-reasoning-sft">
  <rect x="270" y="330" width="180" height="30" class="main-box" rx="5"/>
  <text x="360" y="349" text-anchor="middle" class="text-main">II. Efficient Reasoning with SFT</text>
  </g>
  <line x1="240" y1="345" x2="270" y2="345" class="connector"/>
  
  <!-- 1. Reasoning Chain Compression -->
  <g class="component" data-component="chain-compression">
  <rect x="480" y="320" width="100" height="35" class="main-box" rx="3"/>
  <text x="530" y="333" text-anchor="middle" class="text">Reasoning Chain</text>
  <text x="530" y="345" text-anchor="middle" class="text">Compression</text>
  </g>
  <line x1="450" y1="345" x2="470" y2="345" class="connector"/>
  <line x1="470" y1="345" x2="470" y2="337" class="connector"/>
  <line x1="470" y1="337" x2="480" y2="337" class="connector"/>
  
  <g class="component" data-component="chain-compression-papers">
    <rect x="600" y="320" width="320" height="65" class="sft-box" rx="3"/>
    <text x="610" y="335" class="text">TokenSkip (Xia et al., 2025)</text>
    <text x="610" y="348" class="text">SPIRIT-FT (Cui et al., 2025)</text>
    <text x="610" y="361" class="text">Skip Steps (Liu et al., 2024c)</text>
    <text x="610" y="374" class="text">Distill System 2 (Yu et al., 2024a)</text>
    <text x="760" y="335" class="text">C3ot (Kang et al., 2024)</text>
    <text x="760" y="348" class="text">Self-Training (Munkhbat et al., 2025)</text>
  </g>
  <line x1="580" y1="337" x2="600" y2="337" class="connector"/>
  
  <!-- 2. Latent-Space SFT -->
  <g class="component" data-component="latent-sft">
  <rect x="480" y="395" width="100" height="25" class="main-box" rx="3"/>
  <text x="530" y="412" text-anchor="middle" class="text">Latent-Space SFT</text>
  </g>
  <line x1="470" y1="345" x2="470" y2="407" class="connector"/>
  <line x1="470" y1="407" x2="480" y2="407" class="connector"/>
  
  <g class="component" data-component="latent-sft-papers">
    <rect x="600" y="395" width="320" height="90" class="sft-box" rx="3"/>
    <text x="610" y="410" class="text">Coconut (Hao et al., 2024)</text>
    <text x="610" y="423" class="text">CCoT (Cheng and Van Durme, 2024)</text>
    <text x="610" y="436" class="text">CODI (Shen et al., 2025c)</text>
    <text x="610" y="449" class="text">Token Assorted (Su et al., 2025)</text>
    <text x="610" y="462" class="text">SoftCoT (Xu et al., 2025b)</text>
    <text x="610" y="475" class="text">Heima (Shen et al., 2025a)</text>
    <text x="760" y="410" class="text">Implicit CoT (Deng et al., 2024)</text>
    <text x="760" y="423" class="text">LightThinker (Zhang et al., 2025a)</text>
  </g>
  <line x1="580" y1="407" x2="600" y2="407" class="connector"/>

  <!-- III. Efficient Reasoning with RL -->
  <g class="component" data-component="efficient-reasoning-rl">
  <rect x="270" y="505" width="180" height="30" class="main-box" rx="5"/>
  <text x="360" y="524" text-anchor="middle" class="text-main">III. Efficient Reasoning with RL</text>
  </g>
  <line x1="240" y1="520" x2="270" y2="520" class="connector"/>
  
  <!-- 1. With Length Reward -->
  <g class="component" data-component="rl-length">
  <rect x="480" y="495" width="100" height="25" class="main-box" rx="3"/>
  <text x="530" y="512" text-anchor="middle" class="text">With Length Reward</text>
  </g>
  <line x1="450" y1="520" x2="470" y2="520" class="connector"/>
  <line x1="470" y1="520" x2="470" y2="507" class="connector"/>
  <line x1="470" y1="507" x2="480" y2="507" class="connector"/>
  
  <g class="component" data-component="rl-length-papers">
    <rect x="600" y="495" width="320" height="65" class="rl-box" rx="3"/>
    <text x="610" y="510" class="text">O1-Pruner (Luo et al., 2025a)</text>
    <text x="610" y="523" class="text">Training (Arora and Zanette, 2025)</text>
    <text x="610" y="536" class="text">L1 (Aggarwal and Welleck, 2025)</text>
    <text x="610" y="549" class="text">Kimi-1.5 (Team et al., 2025)</text>
    <text x="760" y="510" class="text">DAST (Shen et al., 2025b)</text>
    <text x="760" y="523" class="text">Demystifying (Yeo et al., 2025)</text>
  </g>
  <line x1="580" y1="507" x2="600" y2="507" class="connector"/>
  
  <!-- 2. Without Length Reward -->
  <g class="component" data-component="rl-without-length">
  <rect x="480" y="570" width="100" height="35" class="main-box" rx="3"/>
  <text x="530" y="583" text-anchor="middle" class="text">Without Length</text>
  <text x="530" y="595" text-anchor="middle" class="text">Reward</text>
  </g>
  <line x1="470" y1="520" x2="470" y2="587" class="connector"/>
  <line x1="470" y1="587" x2="480" y2="587" class="connector"/>
  
  <g class="component" data-component="rl-without-papers">
    <rect x="600" y="570" width="320" height="50" class="rl-box" rx="3"/>
    <text x="610" y="585" class="text">Meta-RL (MRT) (Qu et al., 2025b)</text>
    <text x="610" y="598" class="text">IBPO (Yu et al., 2025b)</text>
    <text x="610" y="611" class="text">Overthink (Chen et al., 2025c)</text>
    <text x="760" y="585" class="text">Dr.GRPO (Liu et al., 2025c)</text>
  </g>
  <line x1="580" y1="587" x2="600" y2="587" class="connector"/>

  <!-- IV. Efficient Reasoning during Pretraining -->
  <g class="component" data-component="efficient-reasoning-pretraining">
  <rect x="270" y="640" width="180" height="30" class="main-box" rx="5"/>
  <text x="360" y="659" text-anchor="middle" class="text-main">IV. Efficient Reasoning during Pretraining</text>
  </g>
  <line x1="240" y1="655" x2="270" y2="655" class="connector"/>
  
  <!-- 1. Latent-space Pretraining -->
  <g class="component" data-component="latent-pretrain">
  <rect x="480" y="630" width="100" height="35" class="main-box" rx="3"/>
  <text x="530" y="643" text-anchor="middle" class="text">Latent-space</text>
  <text x="530" y="655" text-anchor="middle" class="text">Pretraining</text>
  </g>
  <line x1="450" y1="655" x2="470" y2="655" class="connector"/>
  <line x1="470" y1="655" x2="470" y2="647" class="connector"/>
  <line x1="470" y1="647" x2="480" y2="647" class="connector"/>
  
  <g class="component" data-component="latent-pretrain-papers">
    <rect x="600" y="630" width="320" height="50" class="pretrain-box" rx="3"/>
    <text x="610" y="645" class="text">BLT (Pagnoni et al., 2024)</text>
    <text x="610" y="658" class="text">LCMs (The et al., 2024)</text>
    <text x="610" y="671" class="text">CoCoMix (Tack et al., 2025)</text>
    <text x="760" y="645" class="text">LTMs (Kong et al., 2025)</text>
  </g>
  <line x1="580" y1="647" x2="600" y2="647" class="connector"/>
  
  <!-- 2. Subquadratic Attention -->
  <g class="component" data-component="subquad-attention">
  <rect x="480" y="690" width="100" height="35" class="main-box" rx="3"/>
  <text x="530" y="703" text-anchor="middle" class="text">Subquadratic</text>
  <text x="530" y="715" text-anchor="middle" class="text">Attention</text>
  </g>
  <line x1="470" y1="655" x2="470" y2="707" class="connector"/>
  <line x1="470" y1="707" x2="480" y2="707" class="connector"/>
  
  <g class="component" data-component="subquad-attention-papers">
    <rect x="600" y="690" width="320" height="90" class="pretrain-box" rx="3"/>
    <text x="610" y="705" class="text">Lightning Attention/2 (Qin et al., 2024e)</text>
    <text x="610" y="718" class="text">LASP-2 (Sun et al., 2025b)</text>
    <text x="610" y="731" class="text">GLA (Yang et al., 2023)</text>
    <text x="610" y="744" class="text">Gated DeltaNet (Yang et al., 2024d)</text>
    <text x="610" y="757" class="text">MoM (Du et al., 2025)</text>
    <text x="610" y="770" class="text">Mamba-2 (Dao and Gu, 2024)</text>
    <text x="760" y="705" class="text">RWKV-7 (Peng et al., 2025a)</text>
    <text x="760" y="718" class="text">NSA (Yuan et al., 2025a)</text>
    <text x="760" y="731" class="text">MoBA (Lu et al., 2025a)</text>
  </g>
  <line x1="580" y1="707" x2="600" y2="707" class="connector"/>
  
  <!-- 3. Linearization -->
  <g class="component" data-component="linearization">
  <rect x="480" y="790" width="100" height="25" class="main-box" rx="3"/>
  <text x="530" y="807" text-anchor="middle" class="text">Linearization</text>
  </g>
  <line x1="470" y1="655" x2="470" y2="802" class="connector"/>
  <line x1="470" y1="802" x2="480" y2="802" class="connector"/>
  
  <g class="component" data-component="linearization-papers">
    <rect x="600" y="790" width="320" height="40" class="pretrain-box" rx="3"/>
    <text x="610" y="805" class="text">Liger (Lan et al., 2025)</text>
    <text x="610" y="818" class="text">Llamba (Bick et al., 2025)</text>
    <text x="760" y="805" class="text">LoLCATs (Zhang et al., 2024a)</text>
  </g>
  <line x1="580" y1="802" x2="600" y2="802" class="connector"/>

  <!-- V. Efficient Reasoning with Subquadratic Attention -->
  <g class="component" data-component="efficient-reasoning-subquad">
  <rect x="270" y="850" width="180" height="50" class="main-box" rx="5"/>
  <text x="360" y="869" text-anchor="middle" class="text-main">V. Efficient Reasoning with</text>
  <text x="360" y="885" text-anchor="middle" class="text-main">Subquadratic Attention</text>
  </g>
  <line x1="240" y1="875" x2="270" y2="875" class="connector"/>
  
  <g class="component" data-component="subquad-reasoning-papers">
    <rect x="480" y="850" width="440" height="40" class="subquad-box" rx="3"/>
    <text x="490" y="865" class="text">TSF (Paliotta et al., 2025)</text>
    <text x="490" y="878" class="text">CRQs (Yehudai et al., 2025)</text>
    <text x="650" y="865" class="text">Cosmos-Reason1 (Azzolini et al., 2025)</text>
  </g>
  <line x1="450" y1="875" x2="480" y2="875" class="connector"/>

  <!-- VI. Future Directions -->
  <g class="component" data-component="future-directions">
  <rect x="270" y="920" width="180" height="30" class="main-box" rx="5"/>
  <text x="360" y="939" text-anchor="middle" class="text-main">VI. Future Directions</text>
  </g>
  <line x1="240" y1="935" x2="270" y2="935" class="connector"/>
  
  <!-- 1. Efficient Multimodality -->
  <g class="component" data-component="multimodal">
  <rect x="480" y="900" width="120" height="35" class="main-box" rx="3"/>
  <text x="540" y="913" text-anchor="middle" class="text">Efficient Multimodality</text>
  <text x="540" y="925" text-anchor="middle" class="text">and Video Reasoning</text>
  </g>
  <line x1="450" y1="935" x2="470" y2="935" class="connector"/>
  <line x1="470" y1="935" x2="470" y2="917" class="connector"/>
  <line x1="470" y1="917" x2="480" y2="917" class="connector"/>
  
  <g class="component" data-component="multimodal-papers">
    <rect x="620" y="900" width="300" height="40" class="future-box" rx="3"/>
    <text x="630" y="915" class="text">SCoT (Xiang et al., 2025)</text>
    <text x="630" y="928" class="text">AL-CoTD (Peng et al., 2025b)</text>
    <text x="770" y="915" class="text">Heima (Shen et al., 2025a)</text>
  </g>
  <line x1="600" y1="917" x2="620" y2="917" class="connector"/>
  
  <!-- 2. Efficient Test-time Scaling -->
  <g class="component" data-component="test-time-scaling">
  <rect x="480" y="950" width="120" height="35" class="main-box" rx="3"/>
  <text x="540" y="963" text-anchor="middle" class="text">Efficient Test-time</text>
  </g>
  <text x="540" y="975" text-anchor="middle" class="text">Scaling &amp; Infinity Thinking</text>
  <line x1="470" y1="935" x2="470" y2="967" class="connector"/>
  <line x1="470" y1="967" x2="480" y2="967" class="connector"/>
  
  <g class="component" data-component="test-time-papers">
    <rect x="620" y="950" width="300" height="30" class="future-box" rx="3"/>
    <text x="630" y="965" class="text">Self-Calibration (Huang et al., 2025a)</text>
    <text x="630" y="975" class="text">Dynamic self-consistency (Wan et al., 2024)</text>
  </g>
  <line x1="600" y1="967" x2="620" y2="967" class="connector"/>
  
  <!-- 3. Efficient and Trustworthy -->
  <g class="component" data-component="trustworthy">
  <rect x="480" y="990" width="120" height="35" class="main-box" rx="3"/>
  <text x="540" y="1003" text-anchor="middle" class="text">Efficient and</text>
  <text x="540" y="1015" text-anchor="middle" class="text">Trustworthy Reasoning</text>
  </g>
  <line x1="470" y1="935" x2="470" y2="1007" class="connector"/>
  <line x1="470" y1="1007" x2="480" y2="1007" class="connector"/>
  
  <g class="component" data-component="trustworthy-papers">
    <rect x="620" y="990" width="300" height="30" class="future-box" rx="3"/>
    <text x="630" y="1005" class="text">Deliberative Alignment (Guan et al., 2024)</text>
    <text x="770" y="1005" class="text">X-Boundary (Lu et al., 2025b)</text>
  </g>
  <line x1="600" y1="1007" x2="620" y2="1007" class="connector"/>
  
  <!-- 4. Efficient Reasoning Applications -->
  <g class="component" data-component="applications">
  <rect x="480" y="1030" width="120" height="35" class="main-box" rx="3"/>
  <text x="540" y="1043" text-anchor="middle" class="text">Efficient Reasoning</text>
  <text x="540" y="1055" text-anchor="middle" class="text">Applications</text>
  </g>
  <line x1="470" y1="935" x2="470" y2="1047" class="connector"/>
  <line x1="470" y1="1047" x2="480" y2="1047" class="connector"/>
  
  <g class="component" data-component="applications-papers">
    <rect x="620" y="1030" width="300" height="30" class="future-box" rx="3"/>
    <text x="630" y="1045" class="text">Chain-of-Retrieval (Wang et al., 2025a)</text>
    <text x="630" y="1055" class="text">Overthinking in Agent (Cuadron et al., 2025)</text>
  </g>
  <line x1="600" y1="1047" x2="620" y2="1047" class="connector"/>
  
  <!-- 5. Evaluation and Benchmark -->
  <g class="component" data-component="evaluation">
  <rect x="480" y="1070" width="120" height="35" class="main-box" rx="3"/>
  <text x="540" y="1083" text-anchor="middle" class="text">Evaluation and</text>
  <text x="540" y="1095" text-anchor="middle" class="text">Benchmark</text>
  </g>
  <line x1="470" y1="935" x2="470" y2="1087" class="connector"/>
  <line x1="470" y1="1087" x2="480" y2="1087" class="connector"/>
  
  <g class="component" data-component="evaluation-papers">
    <rect x="620" y="1070" width="300" height="30" class="future-box" rx="3"/>
    <text x="630" y="1085" class="text">Overthinking (Chen et al., 2025c)</text>
    <text x="770" y="1085" class="text">DNA Bench (Hashemi et al., 2025)</text>
  </g>
  <line x1="600" y1="1087" x2="620" y2="1087" class="connector"/>
</svg>
